<?xml version="1.0" encoding="UTF-8" standalone="no"?><!DOCTYPE svg PUBLIC "-//W3C//DTD SVG 1.1//EN" "http://www.w3.org/Graphics/SVG/1.1/DTD/svg11.dtd"><svg width="100%" height="100%" viewBox="0 0 18 14" version="1.1" xmlns="http://www.w3.org/2000/svg" xmlns:xlink="http://www.w3.org/1999/xlink" xml:space="preserve" xmlns:serif="http://www.serif.com/" style="fill-rule:evenodd;clip-rule:evenodd;stroke-linecap:square;stroke-linejoin:round;stroke-miterlimit:1.5;"><rect id="Artboard2" x="0" y="0" width="17.378" height="13.993" style="fill:none;"/><g><path d="M2.478,9.051c-0.065,-0.8 1.764,-3.625 5.448,-4.507c0.399,-0.096 0.795,-0.158 1.182,-0.192c2.765,-0.246 5.116,0.93 5.357,1.585c0.313,0.849 -1.671,3.526 -5.044,4.376c-3.531,0.89 -6.898,-0.694 -6.943,-1.262Z" style="fill:none;stroke:#d7dce6;stroke-width:0.44px;"/><g><path d="M8.207,7.5l8.487,-2.467l0.165,0.661l-8.652,1.806Z" style="fill:#00ffdc;"/><path d="M9.205,7.14l-8.54,1.745l0.181,0.724l8.359,-2.469Z" style="fill:#00ffdc;"/><path d="M9.448,7.433l-6.656,-1.87l-0.176,0.811l6.832,1.059Z" style="fill:#00ffdc;"/><path d="M8.155,7.102l6.813,1.028l-0.187,0.863l-6.626,-1.891Z" style="fill:#00ffdc;"/><path d="M8.373,6.922l5.889,5.8l-0.642,0.586l-5.247,-6.386Z" style="fill:#00ffdc;"/><path d="M9.326,7.91l-5.553,-6.791l-0.711,0.65l6.264,6.141Z" style="fill:#00ffdc;"/><path d="M9.012,7.976l-2.068,-7.08l-0.714,0.249l2.782,6.831Z" style="fill:#00ffdc;"/><path d="M8.568,6.792l1.968,6.998l0.841,-0.293l-2.809,-6.705Z" style="fill:#00ffdc;"/><path d="M8.258,7.715l4.924,-4.779l0.652,0.779l-5.576,4Z" style="fill:#00ffdc;"/><path d="M9.333,6.851l-5.489,3.877l0.701,0.839l4.788,-4.716Z" style="fill:#00ffdc;"/><ellipse cx="8.809" cy="7.332" rx="0.72" ry="0.68" style="fill:#00ffdc;"/></g></g></svg>